<mxfile host="Electron" agent="Mozilla/5.0 (Windows NT 10.0; Win64; x64) AppleWebKit/537.36 (KHTML, like Gecko) draw.io/27.0.9 Chrome/134.0.6998.205 Electron/35.4.0 Safari/537.36" version="27.0.9">
  <diagram name="Page-1" id="1hs5s9o86z9CkmKRlvlU">
    <mxGraphModel dx="692" dy="595" grid="0" gridSize="10" guides="1" tooltips="1" connect="1" arrows="1" fold="1" page="1" pageScale="1" pageWidth="827" pageHeight="1169" math="0" shadow="0">
      <root>
        <mxCell id="0" />
        <mxCell id="1" parent="0" />
        <mxCell id="uYZVZ7EIFvZchoL0AMA1-1" value="" style="rounded=0;whiteSpace=wrap;html=1;" parent="1" vertex="1">
          <mxGeometry x="172" y="138" width="431" height="387" as="geometry" />
        </mxCell>
        <mxCell id="m7XsVHhVL0BLHQTgYPTq-6" value="" style="shape=ellipse;container=1;horizontal=1;horizontalStack=0;resizeParent=1;resizeParentMax=0;resizeLast=0;html=1;dashed=0;collapsible=0;" parent="1" vertex="1">
          <mxGeometry x="435" y="198" width="120" height="50" as="geometry" />
        </mxCell>
        <mxCell id="m7XsVHhVL0BLHQTgYPTq-7" value="login" style="html=1;strokeColor=none;fillColor=none;align=center;verticalAlign=middle;rotatable=0;whiteSpace=wrap;" parent="m7XsVHhVL0BLHQTgYPTq-6" vertex="1">
          <mxGeometry x="-5.8" y="18.75" width="120" height="12.5" as="geometry" />
        </mxCell>
        <mxCell id="m7XsVHhVL0BLHQTgYPTq-11" value="" style="shape=ellipse;container=1;horizontal=1;horizontalStack=0;resizeParent=1;resizeParentMax=0;resizeLast=0;html=1;dashed=0;collapsible=0;" parent="1" vertex="1">
          <mxGeometry x="435" y="255" width="120" height="50" as="geometry" />
        </mxCell>
        <mxCell id="m7XsVHhVL0BLHQTgYPTq-12" value="logout" style="html=1;strokeColor=none;fillColor=none;align=center;verticalAlign=middle;rotatable=0;whiteSpace=wrap;" parent="m7XsVHhVL0BLHQTgYPTq-11" vertex="1">
          <mxGeometry y="18.75" width="120" height="12.5" as="geometry" />
        </mxCell>
        <mxCell id="m7XsVHhVL0BLHQTgYPTq-150" value="" style="shape=ellipse;container=1;horizontal=1;horizontalStack=0;resizeParent=1;resizeParentMax=0;resizeLast=0;html=1;dashed=0;collapsible=0;" parent="1" vertex="1">
          <mxGeometry x="420.71" y="405" width="134.29" height="40" as="geometry" />
        </mxCell>
        <mxCell id="m7XsVHhVL0BLHQTgYPTq-151" value="impression statistique mensuel" style="html=1;strokeColor=none;fillColor=none;align=center;verticalAlign=middle;rotatable=0;whiteSpace=wrap;" parent="m7XsVHhVL0BLHQTgYPTq-150" vertex="1">
          <mxGeometry x="3.001784166666666" y="20.92197802197802" width="134.29" height="10" as="geometry" />
        </mxCell>
        <mxCell id="m7XsVHhVL0BLHQTgYPTq-154" value="adminitstrateur" style="shape=umlActor;verticalLabelPosition=bottom;verticalAlign=top;html=1;outlineConnect=0;" parent="1" vertex="1">
          <mxGeometry x="71" y="326" width="30" height="60" as="geometry" />
        </mxCell>
        <mxCell id="m7XsVHhVL0BLHQTgYPTq-161" value="" style="shape=ellipse;container=1;horizontal=1;horizontalStack=0;resizeParent=1;resizeParentMax=0;resizeLast=0;html=1;dashed=0;collapsible=0;" parent="1" vertex="1">
          <mxGeometry x="426.21" y="465" width="123.29" height="44" as="geometry" />
        </mxCell>
        <mxCell id="m7XsVHhVL0BLHQTgYPTq-162" value="impression statistique annuel" style="html=1;strokeColor=none;fillColor=none;align=center;verticalAlign=middle;rotatable=0;whiteSpace=wrap;" parent="m7XsVHhVL0BLHQTgYPTq-161" vertex="1">
          <mxGeometry x="3.29" y="16.5" width="120" height="24.911764705882355" as="geometry" />
        </mxCell>
        <mxCell id="m7XsVHhVL0BLHQTgYPTq-175" value="" style="shape=ellipse;container=1;horizontal=1;horizontalStack=0;resizeParent=1;resizeParentMax=0;resizeLast=0;html=1;dashed=0;collapsible=0;" parent="1" vertex="1">
          <mxGeometry x="427.86" y="318" width="134.29" height="49" as="geometry" />
        </mxCell>
        <mxCell id="m7XsVHhVL0BLHQTgYPTq-176" value="impression&amp;nbsp; statistique journalier" style="html=1;strokeColor=none;fillColor=none;align=center;verticalAlign=middle;rotatable=0;whiteSpace=wrap;" parent="m7XsVHhVL0BLHQTgYPTq-175" vertex="1">
          <mxGeometry x="3.001784166666666" y="25.629423076923075" width="134.29" height="12.25" as="geometry" />
        </mxCell>
        <mxCell id="m7XsVHhVL0BLHQTgYPTq-177" value="" style="endArrow=none;html=1;rounded=0;entryX=0.008;entryY=0.735;entryDx=0;entryDy=0;endFill=0;entryPerimeter=0;" parent="1" source="m7XsVHhVL0BLHQTgYPTq-154" target="CdWwhb2jgdk7E8RrZJ7r-7" edge="1">
          <mxGeometry width="50" height="50" relative="1" as="geometry">
            <mxPoint x="100" y="413" as="sourcePoint" />
            <mxPoint x="712" y="576" as="targetPoint" />
            <Array as="points" />
          </mxGeometry>
        </mxCell>
        <mxCell id="uYZVZ7EIFvZchoL0AMA1-2" value="&lt;b&gt;&lt;font style=&quot;font-size: 16px;&quot;&gt;gestion des impressions - statistiques&lt;/font&gt;&lt;/b&gt;" style="text;html=1;align=center;verticalAlign=middle;whiteSpace=wrap;rounded=0;" parent="1" vertex="1">
          <mxGeometry x="187" y="153" width="258" height="30" as="geometry" />
        </mxCell>
        <mxCell id="CdWwhb2jgdk7E8RrZJ7r-1" value="authentifier" style="ellipse;whiteSpace=wrap;html=1;" vertex="1" parent="1">
          <mxGeometry x="199" y="207" width="120" height="38" as="geometry" />
        </mxCell>
        <mxCell id="CdWwhb2jgdk7E8RrZJ7r-3" value="" style="endArrow=classic;html=1;rounded=0;exitX=1;exitY=0.5;exitDx=0;exitDy=0;entryX=0;entryY=0.5;entryDx=0;entryDy=0;dashed=1;dashPattern=8 8;" edge="1" parent="1" source="CdWwhb2jgdk7E8RrZJ7r-1" target="m7XsVHhVL0BLHQTgYPTq-6">
          <mxGeometry width="50" height="50" relative="1" as="geometry">
            <mxPoint x="334" y="334" as="sourcePoint" />
            <mxPoint x="384" y="284" as="targetPoint" />
          </mxGeometry>
        </mxCell>
        <mxCell id="CdWwhb2jgdk7E8RrZJ7r-4" value="&quot;include&quot;" style="edgeLabel;html=1;align=center;verticalAlign=middle;resizable=0;points=[];" vertex="1" connectable="0" parent="CdWwhb2jgdk7E8RrZJ7r-3">
          <mxGeometry x="-0.0104" relative="1" as="geometry">
            <mxPoint as="offset" />
          </mxGeometry>
        </mxCell>
        <mxCell id="CdWwhb2jgdk7E8RrZJ7r-5" value="" style="endArrow=classic;html=1;rounded=0;dashed=1;dashPattern=8 8;exitX=0.915;exitY=0.905;exitDx=0;exitDy=0;exitPerimeter=0;entryX=0;entryY=0.75;entryDx=0;entryDy=0;" edge="1" parent="1" source="CdWwhb2jgdk7E8RrZJ7r-1" target="m7XsVHhVL0BLHQTgYPTq-12">
          <mxGeometry width="50" height="50" relative="1" as="geometry">
            <mxPoint x="334" y="334" as="sourcePoint" />
            <mxPoint x="384" y="284" as="targetPoint" />
            <Array as="points">
              <mxPoint x="358" y="280" />
            </Array>
          </mxGeometry>
        </mxCell>
        <mxCell id="CdWwhb2jgdk7E8RrZJ7r-6" value="&quot;include&quot;" style="edgeLabel;html=1;align=center;verticalAlign=middle;resizable=0;points=[];" vertex="1" connectable="0" parent="CdWwhb2jgdk7E8RrZJ7r-5">
          <mxGeometry x="-0.088" y="3" relative="1" as="geometry">
            <mxPoint as="offset" />
          </mxGeometry>
        </mxCell>
        <mxCell id="CdWwhb2jgdk7E8RrZJ7r-7" value="gÃ©rer les impressions" style="ellipse;whiteSpace=wrap;html=1;" vertex="1" parent="1">
          <mxGeometry x="204" y="351" width="120" height="46" as="geometry" />
        </mxCell>
        <mxCell id="CdWwhb2jgdk7E8RrZJ7r-8" value="" style="endArrow=classic;html=1;rounded=0;dashed=1;dashPattern=8 8;exitX=0.98;exitY=0.313;exitDx=0;exitDy=0;exitPerimeter=0;" edge="1" parent="1" source="CdWwhb2jgdk7E8RrZJ7r-7">
          <mxGeometry width="50" height="50" relative="1" as="geometry">
            <mxPoint x="334" y="320" as="sourcePoint" />
            <mxPoint x="422" y="347" as="targetPoint" />
          </mxGeometry>
        </mxCell>
        <mxCell id="CdWwhb2jgdk7E8RrZJ7r-9" value="&quot;extend&quot;" style="edgeLabel;html=1;align=center;verticalAlign=middle;resizable=0;points=[];" vertex="1" connectable="0" parent="CdWwhb2jgdk7E8RrZJ7r-8">
          <mxGeometry x="-0.4111" y="2" relative="1" as="geometry">
            <mxPoint x="16" as="offset" />
          </mxGeometry>
        </mxCell>
        <mxCell id="CdWwhb2jgdk7E8RrZJ7r-11" value="" style="endArrow=classic;html=1;rounded=0;dashed=1;dashPattern=8 8;entryX=0;entryY=0.5;entryDx=0;entryDy=0;exitX=0.987;exitY=0.73;exitDx=0;exitDy=0;exitPerimeter=0;" edge="1" parent="1" source="CdWwhb2jgdk7E8RrZJ7r-7" target="m7XsVHhVL0BLHQTgYPTq-150">
          <mxGeometry width="50" height="50" relative="1" as="geometry">
            <mxPoint x="374" y="407" as="sourcePoint" />
            <mxPoint x="482" y="406" as="targetPoint" />
            <Array as="points">
              <mxPoint x="366" y="425" />
            </Array>
          </mxGeometry>
        </mxCell>
        <mxCell id="CdWwhb2jgdk7E8RrZJ7r-12" value="&quot;extend&quot;" style="edgeLabel;html=1;align=center;verticalAlign=middle;resizable=0;points=[];" vertex="1" connectable="0" parent="CdWwhb2jgdk7E8RrZJ7r-11">
          <mxGeometry x="-0.4111" y="2" relative="1" as="geometry">
            <mxPoint x="16" as="offset" />
          </mxGeometry>
        </mxCell>
        <mxCell id="CdWwhb2jgdk7E8RrZJ7r-13" value="" style="endArrow=classic;html=1;rounded=0;dashed=1;dashPattern=8 8;entryX=0;entryY=0.5;entryDx=0;entryDy=0;exitX=0.8;exitY=0.991;exitDx=0;exitDy=0;exitPerimeter=0;" edge="1" parent="1" source="CdWwhb2jgdk7E8RrZJ7r-7" target="m7XsVHhVL0BLHQTgYPTq-161">
          <mxGeometry width="50" height="50" relative="1" as="geometry">
            <mxPoint x="327" y="447" as="sourcePoint" />
            <mxPoint x="435" y="446" as="targetPoint" />
            <Array as="points">
              <mxPoint x="350" y="487" />
            </Array>
          </mxGeometry>
        </mxCell>
        <mxCell id="CdWwhb2jgdk7E8RrZJ7r-14" value="&quot;extend&quot;" style="edgeLabel;html=1;align=center;verticalAlign=middle;resizable=0;points=[];" vertex="1" connectable="0" parent="CdWwhb2jgdk7E8RrZJ7r-13">
          <mxGeometry x="-0.4111" y="2" relative="1" as="geometry">
            <mxPoint x="16" as="offset" />
          </mxGeometry>
        </mxCell>
        <mxCell id="CdWwhb2jgdk7E8RrZJ7r-15" value="" style="endArrow=classic;html=1;rounded=0;exitX=0.607;exitY=0.07;exitDx=0;exitDy=0;exitPerimeter=0;entryX=0.402;entryY=0.989;entryDx=0;entryDy=0;entryPerimeter=0;dashed=1;dashPattern=8 8;" edge="1" parent="1" source="CdWwhb2jgdk7E8RrZJ7r-7" target="CdWwhb2jgdk7E8RrZJ7r-1">
          <mxGeometry width="50" height="50" relative="1" as="geometry">
            <mxPoint x="334" y="320" as="sourcePoint" />
            <mxPoint x="384" y="270" as="targetPoint" />
          </mxGeometry>
        </mxCell>
        <mxCell id="CdWwhb2jgdk7E8RrZJ7r-16" value="&quot;include&quot;" style="edgeLabel;html=1;align=center;verticalAlign=middle;resizable=0;points=[];" vertex="1" connectable="0" parent="CdWwhb2jgdk7E8RrZJ7r-15">
          <mxGeometry x="0.0515" y="5" relative="1" as="geometry">
            <mxPoint as="offset" />
          </mxGeometry>
        </mxCell>
      </root>
    </mxGraphModel>
  </diagram>
</mxfile>
